Daubenton_next.ufo
<glyph name="ampersand" format="1">
  <advance width="820"/>
  <unicode hex="0026"/>
  <outline>
    <contour>
      <point x="650" y="318" type="line"/>
      <point x="766" y="434" type="line"/>
      <point x="629" y="434" type="line"/>
      <point x="478" y="220" type="line"/>
      <point x="191" y="455" type="line"/>
      <point x="191" y="455"/>
      <point x="176" y="467"/>
      <point x="176" y="467" type="curve"/>
      <point x="156" y="487"/>
      <point x="145" y="512"/>
      <point x="145" y="541" type="curve" smooth="yes"/>
      <point x="145" y="594"/>
      <point x="189" y="638"/>
      <point x="248" y="649" type="curve" smooth="yes"/>
      <point x="256" y="650"/>
      <point x="265" y="651"/>
      <point x="274" y="651" type="curve" smooth="yes"/>
      <point x="296" y="651"/>
      <point x="317" y="646"/>
      <point x="335" y="638" type="curve"/>
      <point x="361" y="625"/>
      <point x="381" y="606"/>
      <point x="392" y="582" type="curve"/>
      <point x="426" y="692" type="line"/>
      <point x="405" y="679" type="line"/>
      <point x="396" y="684"/>
      <point x="387" y="689"/>
      <point x="378" y="693" type="curve" smooth="yes"/>
      <point x="351" y="705"/>
      <point x="320" y="712"/>
      <point x="288" y="712" type="curve" smooth="yes"/>
      <point x="178" y="712"/>
      <point x="89" y="634"/>
      <point x="89" y="537" type="curve" smooth="yes"/>
      <point x="89" y="491"/>
      <point x="109" y="449"/>
      <point x="141" y="418" type="curve"/>
      <point x="145" y="414"/>
      <point x="149.77201441949413" y="410.7582094048941"/>
      <point x="163" y="399" type="curve"/>
      <point x="91" y="362"/>
      <point x="42" y="292"/>
      <point x="42" y="212" type="curve" smooth="yes"/>
      <point x="42" y="93"/>
      <point x="150" y="-3"/>
      <point x="283" y="-3" type="curve" smooth="yes"/>
      <point x="354" y="-3"/>
      <point x="418" y="25"/>
      <point x="462" y="69" type="curve"/>
      <point x="475" y="82"/>
      <point x="485" y="96"/>
      <point x="495" y="111" type="curve"/>
      <point x="621" y="1" type="line"/>
      <point x="745" y="1" type="line"/>
      <point x="539" y="170" type="line"/>
    </contour>
    <contour>
      <point x="283" y="61" type="curve" smooth="yes"/>
      <point x="193" y="61"/>
      <point x="121" y="129"/>
      <point x="121" y="212" type="curve" smooth="yes"/>
      <point x="121" y="272"/>
      <point x="159" y="328"/>
      <point x="213" y="356" type="curve"/>
      <point x="434" y="164" type="line"/>
      <point x="435" y="163" type="line"/>
      <point x="434" y="160"/>
      <point x="433" y="157"/>
      <point x="431" y="154" type="curve"/>
      <point x="398" y="107" type="line"/>
      <point x="368" y="79"/>
      <point x="328" y="61"/>
    </contour>
  </outline>
</glyph>
<glyph name="parenleft" format="1">
  <advance width="411"/>
  <unicode hex="0028"/>
  <outline>
    <contour>
      <point x="365" y="-15" type="curve"/>
      <point x="213.9511713817842" y="19.329279231412677"/>
      <point x="131.0" y="175.0"/>
      <point x="131" y="356" type="curve" smooth="yes"/>
      <point x="131.0" y="543.0"/>
      <point x="213.9511713817842" y="692.6707207685873"/>
      <point x="365" y="727" type="curve"/>
      <point x="193.28011204481794" y="727.0"/>
      <point x="49.0" y="570.0"/>
      <point x="49" y="356" type="curve" smooth="yes"/>
      <point x="49.0" y="142.00000000000003"/>
      <point x="193.28011204481794" y="-15.0"/>
    </contour>
  </outline>
</glyph>
<glyph name="comma" format="1">
  <advance width="229"/>
  <unicode hex="002C"/>
  <outline>
    <contour>
      <point x="40" y="80" type="line" smooth="yes"/>
      <point x="40" y="80"/>
      <point x="64" y="42"/>
      <point x="64" y="7" type="curve" smooth="yes"/>
      <point x="64" y="-28"/>
      <point x="40" y="-84"/>
      <point x="40" y="-84" type="curve" smooth="yes"/>
      <point x="40" y="-84"/>
      <point x="144" y="-15"/>
      <point x="187" y="80" type="curve"/>
    </contour>
  </outline>
</glyph>
<glyph name="hyphen" format="1">
  <advance width="575"/>
  <unicode hex="002D"/>
  <outline>
    <contour>
      <point x="502" y="346" type="line"/>
      <point x="71" y="346" type="line"/>
      <point x="71" y="400" type="line"/>
      <point x="502" y="400" type="line"/>
    </contour>
  </outline>
</glyph>
<glyph name="period" format="1">
  <advance width="178"/>
  <unicode hex="002E"/>
  <outline>
    <contour>
      <point x="152" y="31" type="line"/>
      <point x="91" y="92" type="line"/>
      <point x="30" y="31" type="line"/>
      <point x="91" y="-30" type="line"/>
    </contour>
  </outline>
</glyph>
<glyph name="slash" format="1">
  <advance width="289"/>
  <unicode hex="002F"/>
  <outline>
    <contour>
      <point x="54" y="0" type="line"/>
      <point x="289" y="712" type="line"/>
      <point x="210" y="712" type="line"/>
      <point x="5" y="0" type="line"/>
    </contour>
  </outline>
</glyph>
<glyph name="one" format="1">
  <advance width="322"/>
  <unicode hex="0031"/>
  <outline>
    <contour>
      <point x="221" y="681" type="line"/>
      <point x="262" y="712" type="line"/>
      <point x="153" y="712" type="line"/>
      <point x="-3" y="508" type="line"/>
      <point x="145" y="622" type="line"/>
      <point x="145" y="61" type="line"/>
      <point x="84" y="0" type="line"/>
      <point x="282" y="0" type="line"/>
      <point x="221" y="61" type="line"/>
    </contour>
  </outline>
</glyph>
<glyph name="four" format="1">
  <advance width="608"/>
  <unicode hex="0034"/>
  <outline>
    <contour>
      <point x="445" y="189" type="line"/>
      <point x="506" y="189" type="line"/>
      <point x="563" y="132" type="line"/>
      <point x="563" y="317" type="line"/>
      <point x="502" y="255" type="line"/>
      <point x="445" y="255" type="line"/>
      <point x="445" y="690" type="line"/>
      <point x="465" y="710" type="line"/>
      <point x="370" y="710" type="line"/>
      <point x="45" y="189" type="line"/>
      <point x="370" y="189" type="line"/>
      <point x="370" y="59" type="line"/>
      <point x="308" y="-2" type="line"/>
      <point x="507" y="-2" type="line"/>
      <point x="445" y="59" type="line"/>
    </contour>
    <contour>
      <point x="162" y="255" type="line"/>
      <point x="370" y="589" type="line"/>
      <point x="370" y="255" type="line"/>
    </contour>
  </outline>
</glyph>
<glyph name="six" format="1">
  <advance width="582"/>
  <unicode hex="0036"/>
  <outline>
    <contour>
      <point x="317" y="423" type="curve" smooth="yes"/>
      <point x="233" y="423"/>
      <point x="144" y="373"/>
      <point x="119" y="226" type="curve"/>
      <point x="126" y="223" type="line"/>
      <point x="119" y="538"/>
      <point x="339" y="704"/>
      <point x="479" y="724" type="curve"/>
      <point x="467" y="726"/>
      <point x="454" y="727"/>
      <point x="442" y="727" type="curve" smooth="yes"/>
      <point x="256" y="727"/>
      <point x="45" y="518"/>
      <point x="45" y="276" type="curve" smooth="yes"/>
      <point x="45.0" y="90.62989323843419"/>
      <point x="136" y="-15"/>
      <point x="289" y="-15" type="curve" smooth="yes"/>
      <point x="420" y="-15"/>
      <point x="529.0" y="86.53271028037383"/>
      <point x="529" y="209" type="curve" smooth="yes"/>
      <point x="529" y="327"/>
      <point x="422" y="423"/>
    </contour>
    <contour>
      <point x="450.0" y="120.46666666666667"/>
      <point x="375" y="49"/>
      <point x="289" y="49" type="curve" smooth="yes"/>
      <point x="201" y="49"/>
      <point x="127.0" y="128.40740740740736"/>
      <point x="127" y="209" type="curve" smooth="yes"/>
      <point x="127.0" y="295.99849170437403"/>
      <point x="200.5294117647059" y="360.0"/>
      <point x="289" y="360" type="curve" smooth="yes"/>
      <point x="378" y="360"/>
      <point x="450" y="292"/>
      <point x="450" y="209" type="curve" smooth="yes"/>
    </contour>
  </outline>
</glyph>
<glyph name="eight" format="1">
  <advance width="572"/>
  <unicode hex="0038"/>
  <outline>
    <contour>
      <point x="410" y="396" type="curve"/>
      <point x="460.7014291661786" y="427.43488608303073"/>
      <point x="493.0" y="483.12056737588654"/>
      <point x="493" y="544" type="curve" smooth="yes"/>
      <point x="493" y="646"/>
      <point x="404" y="727"/>
      <point x="294" y="727" type="curve" smooth="yes"/>
      <point x="184" y="727"/>
      <point x="95" y="646"/>
      <point x="95" y="544" type="curve" smooth="yes"/>
      <point x="95.0" y="486.16911764705884"/>
      <point x="123" y="433"/>
      <point x="170" y="401" type="curve"/>
      <point x="96" y="364"/>
      <point x="45.0" y="291.85714285714283"/>
      <point x="45" y="210" type="curve" smooth="yes"/>
      <point x="45" y="85"/>
      <point x="153" y="-15"/>
      <point x="286" y="-15" type="curve" smooth="yes"/>
      <point x="418" y="-15"/>
      <point x="526" y="85"/>
      <point x="526" y="210" type="curve" smooth="yes"/>
      <point x="526.0" y="288.8478260869565"/>
      <point x="480.1739117717267" y="357.9055907524912"/>
    </contour>
    <contour>
      <point x="294" y="673" type="curve" smooth="yes"/>
      <point x="364" y="673"/>
      <point x="420" y="609"/>
      <point x="420" y="544" type="curve" smooth="yes"/>
      <point x="420.0" y="479.44166666666666"/>
      <point x="364.0" y="417.0"/>
      <point x="294" y="417" type="curve" smooth="yes"/>
      <point x="224.0" y="417.0"/>
      <point x="168.0" y="479.44166666666666"/>
      <point x="168" y="544" type="curve" smooth="yes"/>
      <point x="168" y="609"/>
      <point x="224" y="673"/>
    </contour>
    <contour>
      <point x="286" y="49" type="curve" smooth="yes"/>
      <point x="196" y="49"/>
      <point x="124" y="122"/>
      <point x="124" y="210" type="curve" smooth="yes"/>
      <point x="124.0" y="294.03105590062114"/>
      <point x="198.0" y="373.0"/>
      <point x="288" y="373" type="curve" smooth="yes"/>
      <point x="377.0" y="373.0"/>
      <point x="447.0" y="294.03105590062114"/>
      <point x="447" y="210" type="curve" smooth="yes"/>
      <point x="447" y="122"/>
      <point x="375" y="49"/>
    </contour>
  </outline>
</glyph>
<glyph name="nine" format="1">
  <advance width="515"/>
  <unicode hex="0039"/>
  <outline>
    <contour>
      <point x="436" y="584" type="curve" smooth="yes"/>
      <point x="417" y="637"/>
      <point x="373" y="680"/>
      <point x="314" y="699" type="curve" smooth="yes"/>
      <point x="292" y="706"/>
      <point x="269" y="710"/>
      <point x="244" y="710" type="curve" smooth="yes"/>
      <point x="134" y="710"/>
      <point x="45" y="633"/>
      <point x="45" y="537" type="curve" smooth="yes"/>
      <point x="45" y="442"/>
      <point x="134" y="365"/>
      <point x="244" y="365" type="curve" smooth="yes"/>
      <point x="297" y="365"/>
      <point x="344" y="382"/>
      <point x="380" y="411" type="curve"/>
      <point x="372" y="192"/>
      <point x="188" y="22"/>
      <point x="25" y="-2" type="curve"/>
      <point x="38" y="-3"/>
      <point x="50" y="-4"/>
      <point x="63" y="-4" type="curve" smooth="yes"/>
      <point x="249" y="-4"/>
      <point x="455" y="187"/>
      <point x="455" y="433" type="curve" smooth="yes"/>
      <point x="455" y="433"/>
      <point x="458" y="523"/>
    </contour>
    <contour>
      <point x="244" y="423" type="curve" smooth="yes"/>
      <point x="174" y="423"/>
      <point x="118" y="477"/>
      <point x="118" y="537" type="curve" smooth="yes"/>
      <point x="118" y="598"/>
      <point x="174" y="652"/>
      <point x="244" y="652" type="curve" smooth="yes"/>
      <point x="300" y="652"/>
      <point x="348" y="615"/>
      <point x="364" y="571" type="curve"/>
      <point x="366" y="562"/>
      <point x="368" y="554"/>
      <point x="370" y="545" type="curve"/>
      <point x="370" y="543"/>
      <point x="370" y="540"/>
      <point x="370" y="537" type="curve" smooth="yes"/>
      <point x="370" y="477"/>
      <point x="314" y="423"/>
    </contour>
  </outline>
</glyph>
<glyph name="colon" format="1">
  <advance width="194"/>
  <unicode hex="003A"/>
  <outline>
    <contour>
      <point x="162" y="31" type="line"/>
      <point x="101" y="92" type="line"/>
      <point x="40" y="31" type="line"/>
      <point x="101" y="-30" type="line"/>
    </contour>
    <contour>
      <point x="162" y="372" type="line"/>
      <point x="101" y="434" type="line"/>
      <point x="40" y="372" type="line"/>
      <point x="101" y="311" type="line"/>
    </contour>
  </outline>
</glyph>
<glyph name="semicolon" format="1">
  <advance width="230"/>
  <unicode hex="003B"/>
  <outline>
    <contour>
      <point x="50" y="80" type="line" smooth="yes"/>
      <point x="50" y="80"/>
      <point x="74" y="42"/>
      <point x="74" y="7" type="curve" smooth="yes"/>
      <point x="74" y="-28"/>
      <point x="50" y="-84"/>
      <point x="50" y="-84" type="curve" smooth="yes"/>
      <point x="50" y="-84"/>
      <point x="154" y="-15"/>
      <point x="197" y="80" type="curve"/>
    </contour>
    <contour>
      <point x="185" y="372" type="line"/>
      <point x="124" y="434" type="line"/>
      <point x="62" y="372" type="line"/>
      <point x="124" y="311" type="line"/>
    </contour>
  </outline>
</glyph>
<glyph name="B" format="1">
  <advance width="681"/>
  <unicode hex="0042"/>
  <outline>
    <contour>
      <point x="413" y="415" type="line"/>
      <point x="477" y="436"/>
      <point x="522" y="490"/>
      <point x="522" y="555" type="curve" smooth="yes"/>
      <point x="522" y="650"/>
      <point x="447" y="727"/>
      <point x="351" y="727" type="curve" smooth="yes"/>
      <point x="281" y="727"/>
      <point x="217" y="688"/>
      <point x="188" y="579" type="curve"/>
      <point x="191" y="577" type="line"/>
      <point x="193" y="671" type="line"/>
      <point x="234" y="712" type="line"/>
      <point x="56" y="712" type="line"/>
      <point x="118" y="651" type="line"/>
      <point x="118" y="61" type="line"/>
      <point x="56" y="0" type="line"/>
      <point x="234" y="0" type="line"/>
      <point x="193" y="43" type="line"/>
      <point x="191" y="502" type="line" smooth="yes"/>
      <point x="191" y="629"/>
      <point x="254" y="688"/>
      <point x="334" y="688" type="curve" smooth="yes"/>
      <point x="406" y="688"/>
      <point x="457" y="629"/>
      <point x="457" y="555" type="curve" smooth="yes"/>
      <point x="457" y="472"/>
      <point x="407" y="419"/>
      <point x="316" y="405" type="curve"/>
      <point x="496" y="405"/>
      <point x="570" y="332"/>
      <point x="570" y="207" type="curve" smooth="yes"/>
      <point x="570" y="104"/>
      <point x="477" y="20"/>
      <point x="361" y="20" type="curve" smooth="yes"/>
      <point x="295" y="20"/>
      <point x="238" y="44"/>
      <point x="193" y="81" type="curve"/>
      <point x="242" y="23"/>
      <point x="321" y="-15"/>
      <point x="411" y="-15" type="curve" smooth="yes"/>
      <point x="545" y="-15"/>
      <point x="653" y="82"/>
      <point x="653" y="201" type="curve" smooth="yes"/>
      <point x="653" y="318"/>
      <point x="551" y="413"/>
      <point x="423" y="419" type="curve"/>
    </contour>
  </outline>
</glyph>
<glyph name="C" format="1">
  <advance width="806"/>
  <unicode hex="0043"/>
  <outline>
    <contour>
      <point x="130" y="356" type="curve" smooth="yes"/>
      <point x="130" y="521"/>
      <point x="272" y="674"/>
      <point x="445" y="674" type="curve" smooth="yes"/>
      <point x="579" y="674"/>
      <point x="692" y="578"/>
      <point x="742" y="473" type="curve"/>
      <point x="732" y="663" type="line"/>
      <point x="668" y="663" type="line"/>
      <point x="604" y="703"/>
      <point x="527" y="727"/>
      <point x="445" y="727" type="curve" smooth="yes"/>
      <point x="227" y="727"/>
      <point x="50" y="560"/>
      <point x="50" y="356" type="curve" smooth="yes"/>
      <point x="50" y="151"/>
      <point x="227" y="-15"/>
      <point x="445" y="-15" type="curve" smooth="yes"/>
      <point x="527" y="-15"/>
      <point x="604" y="9"/>
      <point x="668" y="49" type="curve"/>
      <point x="732" y="49" type="line"/>
      <point x="742" y="239" type="line"/>
      <point x="695" y="140"/>
      <point x="579" y="53"/>
      <point x="445" y="53" type="curve" smooth="yes"/>
      <point x="271" y="53"/>
      <point x="130" y="198"/>
    </contour>
    <contour>
      <point x="396" y="742" type="move" name="top"/>
    </contour>
    <contour>
      <point x="396" y="0" type="move" name="bottom"/>
    </contour>
  </outline>
</glyph>
<glyph name="D" format="1">
  <advance width="863"/>
  <unicode hex="0044"/>
  <outline>
    <contour>
      <point x="194" y="671" type="line"/>
      <point x="235" y="712" type="line"/>
      <point x="57" y="712" type="line"/>
      <point x="118" y="651" type="line"/>
      <point x="118" y="61" type="line"/>
      <point x="57" y="0" type="line"/>
      <point x="235" y="0" type="line"/>
      <point x="194" y="41" type="line"/>
    </contour>
    <contour>
      <point x="727" y="356" type="curve" smooth="yes"/>
      <point x="727" y="175"/>
      <point x="582" y="41"/>
      <point x="406" y="41" type="curve" smooth="yes"/>
      <point x="324" y="41"/>
      <point x="236" y="61"/>
      <point x="194" y="94" type="curve"/>
      <point x="249" y="34"/>
      <point x="343" y="-15"/>
      <point x="452" y="-15" type="curve" smooth="yes"/>
      <point x="646" y="-15"/>
      <point x="809" y="142"/>
      <point x="809" y="356" type="curve" smooth="yes"/>
      <point x="809" y="570"/>
      <point x="646" y="727"/>
      <point x="452" y="727" type="curve" smooth="yes"/>
      <point x="343" y="727"/>
      <point x="248" y="678"/>
      <point x="194" y="618" type="curve"/>
      <point x="239" y="653"/>
      <point x="324" y="681"/>
      <point x="406" y="681" type="curve" smooth="yes"/>
      <point x="582" y="681"/>
      <point x="727" y="543"/>
    </contour>
    <contour>
      <point x="433" y="742" type="move" name="top"/>
    </contour>
  </outline>
</glyph>
<glyph name="E" format="1">
  <advance width="604"/>
  <unicode hex="0045"/>
  <outline>
    <contour>
      <point x="194" y="66" type="line"/>
      <point x="194" y="356" type="line"/>
      <point x="297" y="356" type="line"/>
      <point x="326" y="327" type="line"/>
      <point x="326" y="429" type="line"/>
      <point x="297" y="400" type="line"/>
      <point x="194" y="400" type="line"/>
      <point x="194" y="646" type="line"/>
      <point x="439" y="646" type="line"/>
      <point x="496" y="589" type="line"/>
      <point x="486" y="712" type="line"/>
      <point x="57" y="712" type="line"/>
      <point x="118" y="651" type="line"/>
      <point x="118" y="61" type="line"/>
      <point x="57" y="0" type="line"/>
      <point x="583" y="0" type="line"/>
      <point x="593" y="127" type="line"/>
      <point x="532" y="66" type="line"/>
    </contour>
    <contour>
      <point x="325" y="742" type="move" name="top"/>
    </contour>
    <contour>
      <point x="593" y="0" type="move" name="right"/>
    </contour>
    <contour>
      <point x="325" y="0" type="move" name="bottom"/>
    </contour>
  </outline>
</glyph>
<glyph name="F" format="1">
  <advance width="502"/>
  <unicode hex="0046"/>
  <outline>
    <contour>
      <point x="57" y="712" type="line"/>
      <point x="118" y="651" type="line"/>
      <point x="118" y="61" type="line"/>
      <point x="57" y="0" type="line"/>
      <point x="255" y="0" type="line"/>
      <point x="194" y="61" type="line"/>
      <point x="194" y="356" type="line"/>
      <point x="297" y="356" type="line"/>
      <point x="326" y="327" type="line"/>
      <point x="326" y="429" type="line"/>
      <point x="297" y="400" type="line"/>
      <point x="194" y="400" type="line"/>
      <point x="194" y="646" type="line"/>
      <point x="439" y="646" type="line"/>
      <point x="496" y="589" type="line"/>
      <point x="486" y="712" type="line"/>
    </contour>
  </outline>
</glyph>
<glyph name="G" format="1">
  <advance width="838"/>
  <unicode hex="0047"/>
  <outline>
    <contour>
      <point x="130" y="356" type="curve" smooth="yes"/>
      <point x="130" y="521"/>
      <point x="272" y="674"/>
      <point x="445" y="674" type="curve" smooth="yes"/>
      <point x="579" y="674"/>
      <point x="692" y="578"/>
      <point x="742" y="473" type="curve"/>
      <point x="732" y="663" type="line"/>
      <point x="668" y="663" type="line"/>
      <point x="604" y="703"/>
      <point x="527" y="727"/>
      <point x="445" y="727" type="curve" smooth="yes"/>
      <point x="227" y="727"/>
      <point x="50" y="560"/>
      <point x="50" y="356" type="curve" smooth="yes"/>
      <point x="50" y="151"/>
      <point x="227" y="-15"/>
      <point x="445" y="-15" type="curve" smooth="yes"/>
      <point x="557" y="-15"/>
      <point x="665" y="47"/>
      <point x="698" y="184" type="curve"/>
      <point x="650" y="106"/>
      <point x="567" y="53"/>
      <point x="445" y="53" type="curve" smooth="yes"/>
      <point x="271" y="53"/>
      <point x="130" y="198"/>
    </contour>
    <contour>
      <point x="765" y="-16" type="line"/>
      <point x="765" y="226" type="line"/>
      <point x="773" y="282" type="line"/>
      <point x="636" y="282" type="line"/>
      <point x="698" y="221" type="line"/>
      <point x="698" y="183" type="line"/>
    </contour>
    <contour>
      <point x="443" y="742" type="move" name="top"/>
    </contour>
    <contour>
      <point x="446" y="0" type="move" name="bottom"/>
    </contour>
  </outline>
</glyph>
<glyph name="H" format="1">
  <advance width="819"/>
  <unicode hex="0048"/>
  <outline>
    <contour>
      <point x="762" y="712" type="line"/>
      <point x="564" y="712" type="line"/>
      <point x="625" y="651" type="line"/>
      <point x="625" y="400" type="line"/>
      <point x="194" y="400" type="line"/>
      <point x="194" y="651" type="line"/>
      <point x="255" y="712" type="line"/>
      <point x="57" y="712" type="line"/>
      <point x="118" y="651" type="line"/>
      <point x="118" y="61" type="line"/>
      <point x="57" y="0" type="line"/>
      <point x="255" y="0" type="line"/>
      <point x="194" y="61" type="line"/>
      <point x="194" y="356" type="line"/>
      <point x="625" y="356" type="line"/>
      <point x="625" y="61" type="line"/>
      <point x="564" y="0" type="line"/>
      <point x="762" y="0" type="line"/>
      <point x="701" y="61" type="line"/>
      <point x="701" y="651" type="line"/>
    </contour>
    <contour>
      <point x="410" y="742" type="move" name="top"/>
    </contour>
  </outline>
</glyph>
<glyph name="I" format="1">
  <advance width="312"/>
  <unicode hex="0049"/>
  <outline>
    <contour>
      <point x="194" y="651" type="line"/>
      <point x="255" y="712" type="line"/>
      <point x="57" y="712" type="line"/>
      <point x="118" y="651" type="line"/>
      <point x="118" y="61" type="line"/>
      <point x="57" y="0" type="line"/>
      <point x="255" y="0" type="line"/>
      <point x="194" y="61" type="line"/>
    </contour>
    <contour>
      <point x="156" y="742" type="move" name="top"/>
    </contour>
    <contour>
      <point x="156" y="0" type="move" name="right"/>
    </contour>
    <contour>
      <point x="156" y="-30" type="move" name="bottom"/>
    </contour>
  </outline>
</glyph>
<glyph name="J" format="1">
  <advance width="600"/>
  <unicode hex="004A"/>
  <outline>
    <contour>
      <point x="356" y="712" type="line"/>
      <point x="417" y="651" type="line"/>
      <point x="417" y="214" type="line" smooth="yes"/>
      <point x="417" y="94"/>
      <point x="355" y="40"/>
      <point x="265" y="40" type="curve" smooth="yes"/>
      <point x="157" y="40"/>
      <point x="75" y="116"/>
      <point x="21" y="217" type="curve"/>
      <point x="21" y="38" type="line"/>
      <point x="110" y="38" type="line"/>
      <point x="64" y="58" type="line"/>
      <point x="113" y="16"/>
      <point x="198" y="-15"/>
      <point x="282" y="-15" type="curve" smooth="yes"/>
      <point x="395" y="-15"/>
      <point x="493" y="45"/>
      <point x="493" y="212" type="curve" smooth="yes"/>
      <point x="493" y="651" type="line"/>
      <point x="554" y="712" type="line"/>
    </contour>
    <contour>
      <point x="288" y="742" type="move" name="top"/>
    </contour>
  </outline>
</glyph>
<glyph name="K" format="1">
  <advance width="693"/>
  <unicode hex="004B"/>
  <outline>
    <contour>
      <point x="199" y="386" type="line"/>
      <point x="578" y="0" type="line"/>
      <point x="702" y="0" type="line"/>
      <point x="274" y="393" type="line"/>
      <point x="447" y="596" type="line"/>
      <point x="563" y="712" type="line"/>
      <point x="441" y="712" type="line"/>
    </contour>
    <contour>
      <point x="194" y="651" type="line"/>
      <point x="255" y="712" type="line"/>
      <point x="57" y="712" type="line"/>
      <point x="118" y="651" type="line"/>
      <point x="118" y="61" type="line"/>
      <point x="57" y="0" type="line"/>
      <point x="255" y="0" type="line"/>
      <point x="194" y="61" type="line"/>
    </contour>
    <contour>
      <point x="380" y="742" type="move" name="top"/>
    </contour>
    <contour>
      <point x="380" y="0" type="move" name="bottom"/>
    </contour>
  </outline>
</glyph>
<glyph name="L" format="1">
  <advance width="598"/>
  <unicode hex="004C"/>
  <outline>
    <contour>
      <point x="194" y="66" type="line"/>
      <point x="194" y="651" type="line"/>
      <point x="255" y="712" type="line"/>
      <point x="57" y="712" type="line"/>
      <point x="118" y="651" type="line"/>
      <point x="118" y="61" type="line"/>
      <point x="57" y="0" type="line"/>
      <point x="583" y="0" type="line"/>
      <point x="593" y="127" type="line"/>
      <point x="532" y="66" type="line"/>
    </contour>
    <contour>
      <point x="57" y="742" type="move" name="top"/>
    </contour>
    <contour>
      <point x="325" y="742" type="move" name="right"/>
    </contour>
    <contour>
      <point x="325" y="356" type="move" name="mid"/>
    </contour>
    <contour>
      <point x="325" y="0" type="move" name="bottom"/>
    </contour>
  </outline>
</glyph>
<glyph name="M" format="1">
  <advance width="931"/>
  <unicode hex="004D"/>
  <outline>
    <contour>
      <point x="778" y="664" type="line"/>
      <point x="835" y="712" type="line"/>
      <point x="728" y="712" type="line"/>
      <point x="466" y="193" type="line"/>
      <point x="204" y="712" type="line"/>
      <point x="97" y="712" type="line"/>
      <point x="154" y="664" type="line"/>
      <point x="82" y="55" type="line"/>
      <point x="27" y="0" type="line"/>
      <point x="225" y="0" type="line"/>
      <point x="168" y="57" type="line"/>
      <point x="204" y="575" type="line"/>
      <point x="466" y="16" type="line"/>
      <point x="728" y="575" type="line"/>
      <point x="764" y="57" type="line"/>
      <point x="707" y="0" type="line"/>
      <point x="905" y="0" type="line"/>
      <point x="849" y="55" type="line"/>
    </contour>
  </outline>
</glyph>
<glyph name="N" format="1">
  <advance width="791"/>
  <unicode hex="004E"/>
  <outline>
    <contour>
      <point x="735" y="712" type="line"/>
      <point x="536" y="712" type="line"/>
      <point x="598" y="650" type="line"/>
      <point x="598" y="122" type="line"/>
      <point x="139" y="712" type="line"/>
      <point x="27" y="712" type="line"/>
      <point x="122" y="614" type="line"/>
      <point x="122" y="62" type="line"/>
      <point x="61" y="0" type="line"/>
      <point x="260" y="0" type="line"/>
      <point x="198" y="62" type="line"/>
      <point x="198" y="527" type="line"/>
      <point x="620" y="-3" type="line"/>
      <point x="735" y="-3" type="line"/>
      <point x="673" y="59" type="line"/>
      <point x="673" y="650" type="line"/>
    </contour>
    <contour>
      <point x="381" y="742" type="move" name="top"/>
    </contour>
    <contour>
      <point x="381" y="0" type="move" name="bottom"/>
    </contour>
  </outline>
</glyph>
<glyph name="O" format="1">
  <advance width="888"/>
  <unicode hex="004F"/>
  <outline>
    <contour>
      <point x="444" y="727" type="curve" smooth="yes"/>
      <point x="226" y="727"/>
      <point x="50" y="560"/>
      <point x="50" y="355" type="curve" smooth="yes"/>
      <point x="50" y="150"/>
      <point x="226" y="-15"/>
      <point x="444" y="-15" type="curve" smooth="yes"/>
      <point x="662" y="-15"/>
      <point x="838" y="150"/>
      <point x="838" y="355" type="curve" smooth="yes"/>
      <point x="838" y="560"/>
      <point x="662" y="727"/>
    </contour>
    <contour>
      <point x="444" y="55" type="curve" smooth="yes"/>
      <point x="270" y="55"/>
      <point x="129" y="203"/>
      <point x="129" y="360" type="curve" smooth="yes"/>
      <point x="129" y="522"/>
      <point x="270" y="674"/>
      <point x="444" y="674" type="curve" smooth="yes"/>
      <point x="618" y="674"/>
      <point x="759" y="522"/>
      <point x="759" y="360" type="curve" smooth="yes"/>
      <point x="759" y="203"/>
      <point x="618" y="55"/>
    </contour>
    <contour>
      <point x="444" y="742" type="move" name="top"/>
    </contour>
    <contour>
      <point x="444" y="0" type="move" name="bottom"/>
    </contour>
  </outline>
</glyph>
<glyph name="P" format="1">
  <advance width="623"/>
  <unicode hex="0050"/>
  <outline>
    <contour>
      <point x="193" y="432" type="line"/>
      <point x="189" y="442" type="line"/>
      <point x="210" y="359"/>
      <point x="297" y="303"/>
      <point x="380" y="303" type="curve" smooth="yes"/>
      <point x="498" y="303"/>
      <point x="591" y="398"/>
      <point x="591" y="515" type="curve"/>
      <point x="591" y="632"/>
      <point x="498" y="727"/>
      <point x="380" y="727" type="curve" smooth="yes"/>
      <point x="297" y="727"/>
      <point x="210" y="671"/>
      <point x="189" y="588" type="curve"/>
      <point x="193" y="598" type="line"/>
      <point x="193" y="671" type="line"/>
      <point x="234" y="712" type="line"/>
      <point x="56" y="712" type="line"/>
      <point x="118" y="651" type="line"/>
      <point x="118" y="61" type="line"/>
      <point x="56" y="0" type="line"/>
      <point x="305" y="0" type="line"/>
      <point x="193" y="61" type="line"/>
    </contour>
    <contour>
      <point x="183" y="515" type="curve"/>
      <point x="183" y="606"/>
      <point x="261" y="679"/>
      <point x="359" y="679" type="curve" smooth="yes"/>
      <point x="448" y="679"/>
      <point x="511" y="606"/>
      <point x="511" y="515" type="curve"/>
      <point x="511" y="424"/>
      <point x="448" y="351"/>
      <point x="359" y="351" type="curve" smooth="yes"/>
      <point x="261" y="351"/>
      <point x="183" y="424"/>
    </contour>
  </outline>
</glyph>
<glyph name="Q" format="1">
  <advance width="888"/>
  <unicode hex="0051"/>
  <outline>
    <contour>
      <point x="622" y="-80" type="line"/>
      <point x="774" y="-80" type="line"/>
      <point x="542" y="101" type="line" smooth="yes"/>
      <point x="496" y="137"/>
      <point x="444" y="174"/>
      <point x="392" y="174" type="curve"/>
    </contour>
    <component base="O"/>
  </outline>
</glyph>
<glyph name="R" format="1">
  <advance width="684"/>
  <unicode hex="0052"/>
  <outline>
    <contour>
      <point x="567" y="0" type="curve"/>
      <point x="691" y="0" type="line"/>
      <point x="388" y="281" type="line"/>
      <point x="192" y="456" type="line"/>
      <point x="229" y="421" type="line"/>
      <point x="283" y="380"/>
      <point x="319" y="357"/>
      <point x="390" y="357" type="curve" smooth="yes"/>
      <point x="477" y="357"/>
      <point x="571" y="432"/>
      <point x="571" y="535" type="curve" smooth="yes"/>
      <point x="571" y="646"/>
      <point x="477" y="727"/>
      <point x="377" y="727" type="curve" smooth="yes"/>
      <point x="291" y="727"/>
      <point x="210" y="670"/>
      <point x="189" y="588" type="curve"/>
      <point x="193" y="598" type="line"/>
      <point x="193" y="671" type="line"/>
      <point x="234" y="712" type="line"/>
      <point x="56" y="712" type="line"/>
      <point x="118" y="651" type="line"/>
      <point x="118" y="61" type="line"/>
      <point x="56" y="0" type="line"/>
      <point x="255" y="0" type="line"/>
      <point x="193" y="61" type="line"/>
      <point x="193" y="461" type="line"/>
      <point x="186" y="397" type="line"/>
      <point x="186" y="397"/>
      <point x="567" y="0"/>
    </contour>
    <contour>
      <point x="183" y="535" type="curve" smooth="yes"/>
      <point x="183" y="615"/>
      <point x="256" y="679"/>
      <point x="349" y="679" type="curve" smooth="yes"/>
      <point x="427" y="679"/>
      <point x="491" y="620"/>
      <point x="491" y="535" type="curve" smooth="yes"/>
      <point x="491" y="450"/>
      <point x="427" y="391"/>
      <point x="347" y="391" type="curve" smooth="yes"/>
      <point x="256" y="391"/>
      <point x="183" y="455"/>
    </contour>
    <contour>
      <point x="374" y="742" type="move" name="top"/>
    </contour>
    <contour>
      <point x="374" y="0" type="move" name="bottom"/>
    </contour>
  </outline>
</glyph>
<glyph name="S" format="1">
  <advance width="582"/>
  <unicode hex="0053"/>
  <outline>
    <contour>
      <point x="544.0" y="348.4796380090498"/>
      <point x="454" y="396"/>
      <point x="314" y="434" type="curve" smooth="yes"/>
      <point x="201" y="465"/>
      <point x="160" y="505"/>
      <point x="160" y="562" type="curve" smooth="yes"/>
      <point x="160" y="627"/>
      <point x="212" y="663"/>
      <point x="290" y="663" type="curve" smooth="yes"/>
      <point x="359" y="663"/>
      <point x="423" y="634"/>
      <point x="447" y="581" type="curve"/>
      <point x="447" y="707" type="line"/>
      <point x="376" y="707" type="line"/>
      <point x="425" y="694" type="line"/>
      <point x="392" y="715"/>
      <point x="352" y="727"/>
      <point x="296" y="727" type="curve" smooth="yes"/>
      <point x="197" y="727"/>
      <point x="106" y="662"/>
      <point x="106" y="560" type="curve" smooth="yes"/>
      <point x="106" y="445"/>
      <point x="168.41439084475732" y="392.8791360036125"/>
      <point x="312" y="351" type="curve" smooth="yes"/>
      <point x="405.3197064042246" y="323.9071820116767"/>
      <point x="488.0" y="282.0"/>
      <point x="488" y="192" type="curve" smooth="yes"/>
      <point x="488.0" y="111.0"/>
      <point x="406.0" y="56.0"/>
      <point x="304" y="56" type="curve" smooth="yes"/>
      <point x="184" y="56"/>
      <point x="120" y="128"/>
      <point x="104" y="218" type="curve"/>
      <point x="16" y="18" type="line"/>
      <point x="114" y="85" type="line"/>
      <point x="88" y="74" type="line"/>
      <point x="135" y="22"/>
      <point x="212" y="-15"/>
      <point x="307" y="-15" type="curve" smooth="yes"/>
      <point x="435" y="-15"/>
      <point x="544" y="75"/>
      <point x="544" y="209" type="curve" smooth="yes"/>
    </contour>
    <contour>
      <point x="280" y="742" type="move" name="top"/>
    </contour>
    <contour>
      <point x="280" y="0" type="move" name="bottom"/>
    </contour>
  </outline>
</glyph>
<glyph name="T" format="1">
  <advance width="576"/>
  <unicode hex="0054"/>
  <outline>
    <contour>
      <point x="16" y="712" type="line"/>
      <point x="6" y="589" type="line"/>
      <point x="63" y="646" type="line"/>
      <point x="250" y="646" type="line"/>
      <point x="250" y="61" type="line"/>
      <point x="189" y="0" type="line"/>
      <point x="387" y="0" type="line"/>
      <point x="326" y="61" type="line"/>
      <point x="326" y="646" type="line"/>
      <point x="513" y="646" type="line"/>
      <point x="570" y="589" type="line"/>
      <point x="560" y="712" type="line"/>
    </contour>
    <contour>
      <point x="288" y="742" type="move" name="top"/>
    </contour>
    <contour>
      <point x="288" y="0" type="move" name="bottom"/>
    </contour>
  </outline>
</glyph>
<glyph name="U" format="1">
  <advance width="690"/>
  <unicode hex="0055"/>
  <outline>
    <contour>
      <point x="646" y="712" type="line"/>
      <point x="447" y="712" type="line"/>
      <point x="509" y="651" type="line"/>
      <point x="509" y="205" type="line" smooth="yes"/>
      <point x="509" y="116"/>
      <point x="435" y="49"/>
      <point x="345" y="49" type="curve" smooth="yes"/>
      <point x="254" y="49"/>
      <point x="181" y="116"/>
      <point x="181" y="205" type="curve" smooth="yes"/>
      <point x="181" y="651" type="line"/>
      <point x="242" y="712" type="line"/>
      <point x="44" y="712" type="line"/>
      <point x="105" y="651" type="line"/>
      <point x="105" y="205" type="line" smooth="yes"/>
      <point x="105" y="81"/>
      <point x="212" y="-15"/>
      <point x="345" y="-15" type="curve" smooth="yes"/>
      <point x="477" y="-15"/>
      <point x="585" y="81"/>
      <point x="585" y="205" type="curve" smooth="yes"/>
      <point x="585" y="651" type="line"/>
    </contour>
    <contour>
      <point x="345" y="742" type="move" name="top"/>
    </contour>
    <contour>
      <point x="345" y="0" type="move" name="right"/>
    </contour>
    <contour>
      <point x="345" y="-30" type="move" name="bottom"/>
    </contour>
  </outline>
</glyph>
<glyph name="V" format="1">
  <advance width="704"/>
  <unicode hex="0056"/>
  <outline>
    <contour>
      <point x="505" y="712" type="line"/>
      <point x="548" y="668" type="line"/>
      <point x="352" y="133" type="line"/>
      <point x="156" y="668" type="line"/>
      <point x="199" y="712" type="line"/>
      <point x="-9" y="712" type="line"/>
      <point x="95" y="608" type="line"/>
      <point x="352" y="-17" type="line"/>
      <point x="609" y="608" type="line"/>
      <point x="713" y="712" type="line"/>
    </contour>
  </outline>
</glyph>
<glyph name="W" format="1">
  <advance width="1151"/>
  <unicode hex="0057"/>
  <outline>
    <contour>
      <point x="962" y="712" type="line"/>
      <point x="1006" y="668" type="line"/>
      <point x="800" y="163" type="line"/>
      <point x="576" y="729" type="line"/>
      <point x="352" y="163" type="line"/>
      <point x="146" y="668" type="line"/>
      <point x="189" y="712" type="line"/>
      <point x="-9" y="712" type="line"/>
      <point x="95" y="608" type="line"/>
      <point x="352" y="-17" type="line"/>
      <point x="576" y="527" type="line"/>
      <point x="800" y="-17" type="line"/>
      <point x="1056" y="608" type="line"/>
      <point x="1161" y="712" type="line"/>
    </contour>
    <contour>
      <point x="576" y="742" type="move" name="top"/>
    </contour>
  </outline>
</glyph>
<glyph name="X" format="1">
  <advance width="603"/>
  <unicode hex="0058"/>
  <outline>
    <contour>
      <point x="339" y="387" type="line"/>
      <point x="513" y="666" type="line"/>
      <point x="559" y="712" type="line"/>
      <point x="405" y="712" type="line"/>
      <point x="443" y="675" type="line"/>
      <point x="301" y="448" type="line"/>
      <point x="160" y="674" type="line"/>
      <point x="197" y="712" type="line"/>
      <point x="44" y="712" type="line"/>
      <point x="89" y="666" type="line"/>
      <point x="263" y="387" type="line"/>
      <point x="55" y="54" type="line"/>
      <point x="1" y="0" type="line"/>
      <point x="156" y="0" type="line"/>
      <point x="120" y="36" type="line"/>
      <point x="301" y="327" type="line"/>
      <point x="482" y="38" type="line"/>
      <point x="444" y="0" type="line"/>
      <point x="601" y="0" type="line"/>
      <point x="547" y="54" type="line"/>
    </contour>
  </outline>
</glyph>
<glyph name="Y" format="1">
  <advance width="581"/>
  <unicode hex="0059"/>
  <outline>
    <contour>
      <point x="411" y="712" type="line"/>
      <point x="469" y="654" type="line"/>
      <point x="487" y="699" type="line"/>
      <point x="291" y="434" type="line"/>
      <point x="94" y="697" type="line"/>
      <point x="112" y="653" type="line"/>
      <point x="170" y="712" type="line"/>
      <point x="-28" y="712" type="line"/>
      <point x="70" y="625" type="line"/>
      <point x="19" y="690" type="line"/>
      <point x="253" y="383" type="line"/>
      <point x="253" y="61" type="line"/>
      <point x="192" y="0" type="line"/>
      <point x="390" y="0" type="line"/>
      <point x="328" y="61" type="line"/>
      <point x="328" y="383" type="line"/>
      <point x="562" y="690" type="line"/>
      <point x="511" y="625" type="line"/>
      <point x="609" y="712" type="line"/>
    </contour>
    <contour>
      <point x="291" y="742" type="move" name="top"/>
    </contour>
  </outline>
</glyph>
<glyph name="Z" format="1">
  <advance width="562"/>
  <unicode hex="005A"/>
  <outline>
    <contour>
      <point x="37" y="712" type="line"/>
      <point x="27" y="589" type="line"/>
      <point x="84" y="646" type="line"/>
      <point x="430" y="646" type="line"/>
      <point x="27" y="0" type="line"/>
      <point x="491" y="0" type="line"/>
      <point x="502" y="127" type="line"/>
      <point x="440" y="66" type="line"/>
      <point x="144" y="66" type="line"/>
      <point x="547" y="712" type="line"/>
    </contour>
    <contour>
      <point x="287" y="742" type="move" name="top"/>
    </contour>
  </outline>
</glyph>
<glyph name="grave" format="1">
  <advance width="250"/>
  <unicode hex="0060"/>
  <outline>
    <contour>
      <point x="189" y="866" type="line"/>
      <point x="189" y="866"/>
      <point x="165" y="838"/>
      <point x="165" y="803" type="curve" smooth="yes"/>
      <point x="165" y="768"/>
      <point x="219" y="732"/>
      <point x="219" y="732" type="curve"/>
      <point x="219" y="732"/>
      <point x="85" y="771"/>
      <point x="41" y="866" type="curve"/>
    </contour>
    <contour>
      <point x="130.0" y="732.0" type="move" name="_top"/>
    </contour>
  </outline>
</glyph>
<glyph name="a" format="1">
  <advance width="559"/>
  <unicode hex="0061"/>
  <outline>
    <contour>
      <point x="70" y="122" type="curve" smooth="yes"/>
      <point x="70" y="40"/>
      <point x="131" y="-15"/>
      <point x="206" y="-15" type="curve" smooth="yes"/>
      <point x="277" y="-15"/>
      <point x="336" y="29"/>
      <point x="377" y="101" type="curve"/>
      <point x="336" y="57"/>
      <point x="295" y="28"/>
      <point x="248" y="28" type="curve" smooth="yes"/>
      <point x="190" y="28"/>
      <point x="134" y="73"/>
      <point x="142" y="141" type="curve"/>
      <point x="226" y="162"/>
      <point x="318" y="190"/>
      <point x="374" y="273" type="curve"/>
      <point x="311" y="206"/>
      <point x="165" y="177"/>
      <point x="83" y="176" type="curve"/>
      <point x="75" y="162"/>
      <point x="70" y="142"/>
    </contour>
    <contour>
      <point x="279" y="425" type="curve" smooth="yes"/>
      <point x="336" y="425"/>
      <point x="374" y="396"/>
      <point x="374" y="324" type="curve" smooth="yes"/>
      <point x="374" y="72" type="line" smooth="yes"/>
      <point x="374" y="29"/>
      <point x="406" y="0"/>
      <point x="445" y="0" type="curve" smooth="yes"/>
      <point x="477" y="0"/>
      <point x="515" y="29"/>
      <point x="534" y="49" type="curve"/>
      <point x="518" y="41"/>
      <point x="501" y="38"/>
      <point x="484" y="38" type="curve" smooth="yes"/>
      <point x="458" y="38"/>
      <point x="442" y="53"/>
      <point x="442" y="85" type="curve" smooth="yes"/>
      <point x="442" y="330" type="line" smooth="yes"/>
      <point x="442" y="423"/>
      <point x="381" y="465"/>
      <point x="295" y="465" type="curve" smooth="yes"/>
      <point x="237" y="465"/>
      <point x="166" y="440"/>
      <point x="130" y="401" type="curve"/>
      <point x="173" y="417" type="line"/>
      <point x="101" y="417" type="line"/>
      <point x="101" y="281" type="line"/>
      <point x="144" y="363"/>
      <point x="208" y="425"/>
    </contour>
    <contour>
      <point x="302" y="510" type="move" name="top"/>
    </contour>
    <contour>
      <point x="302" y="0" type="move" name="bottom"/>
    </contour>
    <contour>
      <point x="534" y="0" type="move" name="right"/>
    </contour>
  </outline>
</glyph>
<glyph name="b" format="1">
  <advance width="649"/>
  <unicode hex="0062"/>
  <outline>
    <contour>
      <point x="574" y="230" type="curve" smooth="yes"/>
      <point x="574" y="361"/>
      <point x="477" y="465"/>
      <point x="356" y="465" type="curve" smooth="yes"/>
      <point x="283" y="465"/>
      <point x="219" y="434"/>
      <point x="180" y="387" type="curve"/>
      <point x="212" y="413"/>
      <point x="260" y="425"/>
      <point x="311" y="425" type="curve" smooth="yes"/>
      <point x="415" y="425"/>
      <point x="495" y="338"/>
      <point x="495" y="225" type="curve" smooth="yes"/>
      <point x="495" y="113"/>
      <point x="415" y="25"/>
      <point x="311" y="25" type="curve" smooth="yes"/>
      <point x="260" y="25"/>
      <point x="212" y="37"/>
      <point x="180" y="63" type="curve"/>
      <point x="219" y="16"/>
      <point x="283" y="-15"/>
      <point x="356" y="-15" type="curve" smooth="yes"/>
      <point x="477" y="-15"/>
      <point x="574" y="85"/>
    </contour>
    <contour>
      <point x="180" y="772" type="line"/>
      <point x="57" y="752" type="line"/>
      <point x="112" y="701" type="line"/>
      <point x="112" y="-15" type="line"/>
      <point x="180" y="64" type="line"/>
    </contour>
    <contour>
      <point x="56" y="792" type="move" name="right"/>
    </contour>
  </outline>
</glyph>
<glyph name="c" format="1">
  <advance width="592"/>
  <unicode hex="0063"/>
  <outline>
    <contour>
      <point x="137" y="229" type="curve"/>
      <point x="137" y="332"/>
      <point x="223" y="407"/>
      <point x="329" y="407" type="curve" smooth="yes"/>
      <point x="406" y="407"/>
      <point x="479" y="362"/>
      <point x="517" y="302" type="curve"/>
      <point x="517" y="421" type="line"/>
      <point x="480" y="421" type="line"/>
      <point x="437" y="454"/>
      <point x="385" y="465"/>
      <point x="329" y="465" type="curve" smooth="yes"/>
      <point x="187" y="465"/>
      <point x="70" y="374"/>
      <point x="70" y="226" type="curve"/>
      <point x="70" y="82"/>
      <point x="187" y="-15"/>
      <point x="329" y="-15" type="curve" smooth="yes"/>
      <point x="385" y="-15"/>
      <point x="437" y="1"/>
      <point x="480" y="29" type="curve"/>
      <point x="517" y="29" type="line"/>
      <point x="517" y="148" type="line"/>
      <point x="479" y="93"/>
      <point x="406" y="43"/>
      <point x="329" y="43" type="curve" smooth="yes"/>
      <point x="223" y="43"/>
      <point x="137" y="123"/>
    </contour>
    <contour>
      <point x="294" y="510" type="move" name="top"/>
    </contour>
    <contour>
      <point x="294" y="0" type="move" name="bottom"/>
    </contour>
  </outline>
</glyph>
<glyph name="d" format="1">
  <advance width="654"/>
  <unicode hex="0064"/>
  <outline>
    <contour>
      <point x="469" y="701" type="line"/>
      <point x="469" y="64" type="line"/>
      <point x="479" y="0" type="line"/>
      <point x="593" y="0" type="line"/>
      <point x="537" y="65" type="line"/>
      <point x="537" y="772" type="line"/>
      <point x="414" y="752" type="line"/>
    </contour>
    <contour>
      <point x="75" y="230" type="curve" smooth="yes"/>
      <point x="75" y="85"/>
      <point x="172" y="-15"/>
      <point x="293" y="-15" type="curve" smooth="yes"/>
      <point x="366" y="-15"/>
      <point x="430" y="16"/>
      <point x="469" y="63" type="curve"/>
      <point x="437" y="37"/>
      <point x="389" y="25"/>
      <point x="338" y="25" type="curve" smooth="yes"/>
      <point x="234" y="25"/>
      <point x="154" y="113"/>
      <point x="154" y="225" type="curve" smooth="yes"/>
      <point x="154" y="338"/>
      <point x="234" y="425"/>
      <point x="338" y="425" type="curve" smooth="yes"/>
      <point x="389" y="425"/>
      <point x="437" y="413"/>
      <point x="469" y="387" type="curve"/>
      <point x="430" y="434"/>
      <point x="366" y="465"/>
      <point x="293" y="465" type="curve" smooth="yes"/>
      <point x="172" y="465"/>
      <point x="75" y="361"/>
    </contour>
    <contour>
      <point x="593" y="792" type="move" name="right"/>
    </contour>
  </outline>
</glyph>
<glyph name="e" format="1">
  <advance width="554"/>
  <unicode hex="0065"/>
  <outline>
    <contour>
      <point x="496" y="142" type="line"/>
      <point x="458" y="89"/>
      <point x="382" y="46"/>
      <point x="309" y="46" type="curve" smooth="yes"/>
      <point x="217" y="46"/>
      <point x="130" y="98"/>
      <point x="130" y="224" type="curve" smooth="yes"/>
      <point x="130" y="373"/>
      <point x="203" y="408"/>
      <point x="281" y="408" type="curve" smooth="yes"/>
      <point x="345" y="408"/>
      <point x="413" y="376"/>
      <point x="413" y="296" type="curve"/>
      <point x="474" y="298" type="line"/>
      <point x="457" y="422"/>
      <point x="374" y="465"/>
      <point x="291" y="465" type="curve" smooth="yes"/>
      <point x="193" y="465"/>
      <point x="76" y="381"/>
      <point x="76" y="226" type="curve" smooth="yes"/>
      <point x="76" y="73"/>
      <point x="176" y="-15"/>
      <point x="297" y="-15" type="curve" smooth="yes"/>
      <point x="361" y="-15"/>
      <point x="417" y="7"/>
      <point x="466" y="39" type="curve"/>
      <point x="437" y="33" type="line"/>
      <point x="496" y="33" type="line"/>
    </contour>
    <contour>
      <point x="193" y="238"/>
      <point x="346" y="300"/>
      <point x="474" y="298" type="curve"/>
      <point x="447" y="346" type="line"/>
      <point x="325" y="339"/>
      <point x="205" y="269"/>
      <point x="138" y="162" type="curve"/>
    </contour>
    <contour>
      <point x="286" y="510" type="move" name="top"/>
    </contour>
    <contour>
      <point x="286" y="0" type="move" name="bottom"/>
    </contour>
    <contour>
      <point x="496" y="0" type="move" name="right"/>
    </contour>
  </outline>
</glyph>
<glyph name="f" format="1">
  <advance width="352"/>
  <unicode hex="0066"/>
  <outline>
    <contour>
      <point x="314" y="406" type="line"/>
      <point x="343" y="377" type="line"/>
      <point x="343" y="479" type="line"/>
      <point x="314" y="450" type="line"/>
      <point x="85" y="450" type="line"/>
      <point x="56" y="479" type="line"/>
      <point x="56" y="377" type="line"/>
      <point x="85" y="406" type="line"/>
    </contour>
    <contour>
      <point x="130" y="55" type="line"/>
      <point x="75" y="0" type="line"/>
      <point x="253" y="0" type="line"/>
      <point x="198" y="55" type="line"/>
      <point x="198" y="618" type="line" smooth="yes"/>
      <point x="198" y="685"/>
      <point x="221" y="711"/>
      <point x="269" y="711" type="curve" smooth="yes"/>
      <point x="326" y="711"/>
      <point x="378" y="670"/>
      <point x="407" y="626" type="curve"/>
      <point x="407" y="737" type="line"/>
      <point x="370" y="737" type="line"/>
      <point x="341" y="753"/>
      <point x="307" y="761"/>
      <point x="269" y="761" type="curve" smooth="yes"/>
      <point x="193" y="761"/>
      <point x="130" y="715"/>
      <point x="130" y="618" type="curve" smooth="yes"/>
    </contour>
  </outline>
</glyph>
<glyph name="g" format="1">
  <advance width="586"/>
  <unicode hex="0067"/>
  <outline>
    <contour>
      <point x="281" y="465" type="curve" smooth="yes"/>
      <point x="182" y="465"/>
      <point x="102" y="392"/>
      <point x="102" y="300" type="curve" smooth="yes"/>
      <point x="102" y="206"/>
      <point x="182" y="134"/>
      <point x="281" y="134" type="curve" smooth="yes"/>
      <point x="379" y="134"/>
      <point x="461" y="206"/>
      <point x="461" y="300" type="curve" smooth="yes"/>
      <point x="461" y="392"/>
      <point x="379" y="465"/>
    </contour>
    <contour>
      <point x="281" y="191" type="curve" smooth="yes"/>
      <point x="217" y="191"/>
      <point x="166" y="243"/>
      <point x="166" y="304" type="curve" smooth="yes"/>
      <point x="166" y="365"/>
      <point x="217" y="418"/>
      <point x="281" y="418" type="curve" smooth="yes"/>
      <point x="345" y="418"/>
      <point x="396" y="365"/>
      <point x="396" y="304" type="curve" smooth="yes"/>
      <point x="396" y="243"/>
      <point x="345" y="191"/>
    </contour>
    <contour>
      <point x="554" y="362" type="curve"/>
      <point x="554" y="468" type="line"/>
      <point x="511" y="457"/>
      <point x="471" y="409"/>
      <point x="445" y="362" type="curve" smooth="yes"/>
      <point x="469" y="374"/>
      <point x="492" y="384"/>
      <point x="507" y="384" type="curve" smooth="yes"/>
      <point x="521" y="384"/>
      <point x="540" y="375"/>
    </contour>
    <contour>
      <point x="123" y="114" type="curve" smooth="yes"/>
      <point x="123" y="142"/>
      <point x="139" y="168"/>
      <point x="174" y="185" type="curve"/>
      <point x="125" y="173"/>
      <point x="82" y="137"/>
      <point x="82" y="88" type="curve" smooth="yes"/>
      <point x="82" y="42"/>
      <point x="117" y="0"/>
      <point x="228" y="0" type="curve" smooth="yes"/>
      <point x="398" y="0" type="line" smooth="yes"/>
      <point x="471" y="0"/>
      <point x="495" y="-31"/>
      <point x="495" y="-82" type="curve" smooth="yes"/>
      <point x="495" y="-145"/>
      <point x="452" y="-177"/>
      <point x="370" y="-177" type="curve" smooth="yes"/>
      <point x="203" y="-177"/>
      <point x="92" y="-113"/>
      <point x="92" y="-26" type="curve" smooth="yes"/>
      <point x="92" y="-4"/>
      <point x="95" y="20"/>
      <point x="103" y="35" type="curve"/>
      <point x="79" y="6"/>
      <point x="57" y="-35"/>
      <point x="57" y="-74" type="curve" smooth="yes"/>
      <point x="57" y="-180"/>
      <point x="154" y="-230"/>
      <point x="301" y="-230" type="curve" smooth="yes"/>
      <point x="432" y="-230"/>
      <point x="555" y="-144"/>
      <point x="555" y="-42" type="curve" smooth="yes"/>
      <point x="555" y="20"/>
      <point x="499" y="61"/>
      <point x="396" y="61" type="curve" smooth="yes"/>
      <point x="226" y="61" type="line" smooth="yes"/>
      <point x="137" y="61"/>
      <point x="123" y="88"/>
    </contour>
    <contour>
      <point x="306" y="510" type="move" name="top"/>
    </contour>
    <contour>
      <point x="306" y="-260" type="move" name="bottom"/>
    </contour>
  </outline>
</glyph>
<glyph name="h" format="1">
  <advance width="592"/>
  <unicode hex="0068"/>
  <outline>
    <contour>
      <point x="185" y="619" type="line"/>
      <point x="241" y="674" type="line"/>
      <point x="61" y="674" type="line"/>
      <point x="117" y="619" type="line"/>
      <point x="117" y="55" type="line"/>
      <point x="61" y="0" type="line"/>
      <point x="240" y="0" type="line"/>
      <point x="185" y="55" type="line"/>
    </contour>
    <contour>
      <point x="414" y="258" type="curve" smooth="yes"/>
      <point x="414" y="55" type="line"/>
      <point x="358" y="0" type="line"/>
      <point x="537" y="0" type="line"/>
      <point x="482" y="55" type="line"/>
      <point x="482" y="264" type="line" smooth="yes"/>
      <point x="482" y="396"/>
      <point x="437" y="455"/>
      <point x="354" y="455" type="curve" smooth="yes"/>
      <point x="284" y="455"/>
      <point x="238" y="419"/>
      <point x="205" y="360" type="curve"/>
      <point x="243" y="401"/>
      <point x="274" y="424"/>
      <point x="318" y="424" type="curve" smooth="yes"/>
      <point x="382" y="424"/>
      <point x="414" y="375"/>
    </contour>
    <contour>
      <point x="61" y="792" type="move" name="top"/>
    </contour>
    <contour>
      <point x="299" y="0" type="move" name="bottom"/>
    </contour>
  </outline>
</glyph>
<glyph name="i" format="1">
  <advance width="308"/>
  <unicode hex="0069"/>
  <outline>
    <contour>
      <point x="217" y="627" type="line"/>
      <point x="149" y="696" type="line"/>
      <point x="80" y="627" type="line"/>
      <point x="149" y="559" type="line"/>
    </contour>
    <component base="dotlessi" xOffset="29"/>
    <contour>
      <point x="248" y="0" type="move" name="right"/>
    </contour>
  </outline>
</glyph>
<glyph name="j" format="1">
  <advance width="299"/>
  <unicode hex="006A"/>
  <outline>
    <contour>
      <point x="184" y="393" type="line"/>
      <point x="239" y="448" type="line"/>
      <point x="60" y="448" type="line"/>
      <point x="115" y="393" type="line"/>
      <point x="115" y="-171" type="line"/>
      <point x="60" y="-226" type="line"/>
      <point x="239" y="-226" type="line"/>
      <point x="184" y="-171" type="line"/>
    </contour>
    <contour>
      <point x="218" y="627" type="line"/>
      <point x="150" y="696" type="line"/>
      <point x="81" y="627" type="line"/>
      <point x="150" y="559" type="line"/>
    </contour>
  </outline>
</glyph>
<glyph name="k" format="1">
  <advance width="536"/>
  <unicode hex="006B"/>
  <outline>
    <contour>
      <point x="189" y="251" type="line"/>
      <point x="425" y="0" type="line"/>
      <point x="537" y="0" type="line"/>
      <point x="288" y="228" type="line"/>
      <point x="243" y="263" type="line"/>
      <point x="326" y="346" type="line"/>
      <point x="443" y="450" type="line"/>
      <point x="320" y="450" type="line"/>
    </contour>
    <contour>
      <point x="184" y="772" type="line"/>
      <point x="61" y="752" type="line"/>
      <point x="116" y="701" type="line"/>
      <point x="116" y="55" type="line"/>
      <point x="61" y="0" type="line"/>
      <point x="239" y="0" type="line"/>
      <point x="184" y="55" type="line"/>
    </contour>
    <contour>
      <point x="61" y="792" type="move" name="top"/>
    </contour>
    <contour>
      <point x="299" y="0" type="move" name="bottom"/>
    </contour>
  </outline>
</glyph>
<glyph name="l" format="1">
  <advance width="300"/>
  <unicode hex="006C"/>
  <outline>
    <contour>
      <point x="184" y="772" type="line"/>
      <point x="61" y="752" type="line"/>
      <point x="116" y="701" type="line"/>
      <point x="116" y="55" type="line"/>
      <point x="61" y="0" type="line"/>
      <point x="239" y="0" type="line"/>
      <point x="184" y="55" type="line"/>
    </contour>
    <contour>
      <point x="150" y="792" type="move" name="top"/>
    </contour>
    <contour>
      <point x="150" y="0" type="move" name="bottom"/>
    </contour>
    <contour>
      <point x="150" y="225" type="move" name="mid"/>
    </contour>
    <contour>
      <point x="239" y="792" type="move" name="right"/>
    </contour>
  </outline>
</glyph>
<glyph name="m" format="1">
  <advance width="879"/>
  <unicode hex="006D"/>
  <outline>
    <contour>
      <point x="179" y="466" type="line"/>
      <point x="65" y="442" type="line"/>
      <point x="121" y="384" type="line"/>
      <point x="121" y="55" type="line"/>
      <point x="65" y="0" type="line"/>
      <point x="244" y="0" type="line"/>
      <point x="189" y="55" type="line"/>
      <point x="189" y="381" type="line"/>
    </contour>
    <contour>
      <point x="409" y="299" type="curve" smooth="yes"/>
      <point x="409" y="55" type="line"/>
      <point x="353" y="0" type="line"/>
      <point x="532" y="0" type="line"/>
      <point x="477" y="55" type="line"/>
      <point x="477" y="305" type="line" smooth="yes"/>
      <point x="477" y="415"/>
      <point x="432" y="465"/>
      <point x="359" y="465" type="curve" smooth="yes"/>
      <point x="286" y="465"/>
      <point x="229" y="422"/>
      <point x="189" y="381" type="curve"/>
      <point x="230" y="406"/>
      <point x="266" y="419"/>
      <point x="325" y="418" type="curve" smooth="yes"/>
      <point x="379" y="417"/>
      <point x="409" y="382"/>
    </contour>
    <contour>
      <point x="699" y="299" type="curve" smooth="yes"/>
      <point x="699" y="55" type="line"/>
      <point x="643" y="0" type="line"/>
      <point x="822" y="0" type="line"/>
      <point x="767" y="55" type="line"/>
      <point x="767" y="305" type="line" smooth="yes"/>
      <point x="767" y="415"/>
      <point x="722" y="465"/>
      <point x="649" y="465" type="curve" smooth="yes"/>
      <point x="572" y="465"/>
      <point x="512" y="418"/>
      <point x="469" y="374" type="curve"/>
      <point x="514" y="402"/>
      <point x="552" y="419"/>
      <point x="615" y="418" type="curve" smooth="yes"/>
      <point x="669" y="417"/>
      <point x="699" y="382"/>
    </contour>
  </outline>
</glyph>
<glyph name="n" format="1">
  <advance width="619"/>
  <unicode hex="006E"/>
  <outline>
    <contour>
      <point x="179" y="466" type="line"/>
      <point x="65" y="442" type="line"/>
      <point x="121" y="384" type="line"/>
      <point x="121" y="55" type="line"/>
      <point x="65" y="0" type="line"/>
      <point x="244" y="0" type="line"/>
      <point x="189" y="55" type="line"/>
      <point x="189" y="381" type="line"/>
    </contour>
    <contour>
      <point x="439" y="293" type="curve" smooth="yes"/>
      <point x="439" y="55" type="line"/>
      <point x="383" y="0" type="line"/>
      <point x="562" y="0" type="line"/>
      <point x="507" y="55" type="line"/>
      <point x="507" y="305" type="line" smooth="yes"/>
      <point x="507" y="415"/>
      <point x="456" y="465"/>
      <point x="374" y="465" type="curve" smooth="yes"/>
      <point x="295" y="465"/>
      <point x="231" y="424"/>
      <point x="189" y="381" type="curve"/>
      <point x="232" y="408"/>
      <point x="275" y="418"/>
      <point x="340" y="417" type="curve" smooth="yes"/>
      <point x="403" y="416"/>
      <point x="439" y="380"/>
    </contour>
    <contour>
      <point x="314" y="510" type="move" name="top"/>
    </contour>
    <contour>
      <point x="314" y="0" type="move" name="bottom"/>
    </contour>
  </outline>
</glyph>
<glyph name="o" format="1">
  <advance width="624"/>
  <unicode hex="006F"/>
  <outline>
    <contour>
      <point x="312" y="465" type="curve" smooth="yes"/>
      <point x="178" y="465"/>
      <point x="70" y="357"/>
      <point x="70" y="225" type="curve" smooth="yes"/>
      <point x="70" y="93"/>
      <point x="178" y="-15"/>
      <point x="312" y="-15" type="curve" smooth="yes"/>
      <point x="445" y="-15"/>
      <point x="554" y="93"/>
      <point x="554" y="225" type="curve" smooth="yes"/>
      <point x="554" y="357"/>
      <point x="445" y="465"/>
    </contour>
    <contour>
      <point x="312" y="45" type="curve" smooth="yes"/>
      <point x="216" y="45"/>
      <point x="139" y="127"/>
      <point x="139" y="230" type="curve" smooth="yes"/>
      <point x="139" y="333"/>
      <point x="216" y="417"/>
      <point x="312" y="417" type="curve" smooth="yes"/>
      <point x="407" y="417"/>
      <point x="484" y="333"/>
      <point x="484" y="230" type="curve" smooth="yes"/>
      <point x="484" y="127"/>
      <point x="407" y="45"/>
    </contour>
    <contour>
      <point x="312" y="510" type="move" name="top"/>
    </contour>
    <contour>
      <point x="312" y="0" type="move" name="bottom"/>
    </contour>
  </outline>
</glyph>
<glyph name="p" format="1">
  <advance width="653"/>
  <unicode hex="0070"/>
  <outline>
    <contour>
      <point x="578" y="220" type="curve" smooth="yes"/>
      <point x="578" y="365"/>
      <point x="481" y="465"/>
      <point x="360" y="465" type="curve" smooth="yes"/>
      <point x="287" y="465"/>
      <point x="223" y="434"/>
      <point x="184" y="387" type="curve"/>
      <point x="216" y="413"/>
      <point x="264" y="425"/>
      <point x="315" y="425" type="curve" smooth="yes"/>
      <point x="419" y="425"/>
      <point x="499" y="337"/>
      <point x="499" y="225" type="curve" smooth="yes"/>
      <point x="499" y="112"/>
      <point x="419" y="25"/>
      <point x="315" y="25" type="curve" smooth="yes"/>
      <point x="264" y="25"/>
      <point x="216" y="37"/>
      <point x="184" y="63" type="curve"/>
      <point x="223" y="16"/>
      <point x="287" y="-15"/>
      <point x="360" y="-15" type="curve" smooth="yes"/>
      <point x="481" y="-15"/>
      <point x="578" y="89"/>
    </contour>
    <contour>
      <point x="282" y="-230" type="line"/>
      <point x="184" y="-175" type="line"/>
      <point x="184" y="386" type="line"/>
      <point x="174" y="450" type="line"/>
      <point x="60" y="450" type="line"/>
      <point x="116" y="385" type="line"/>
      <point x="116" y="-175" type="line"/>
      <point x="60" y="-230" type="line"/>
    </contour>
  </outline>
</glyph>
<glyph name="q" format="1">
  <advance width="649"/>
  <unicode hex="0071"/>
  <outline>
    <contour>
      <point x="75" y="220" type="curve" smooth="yes"/>
      <point x="75" y="89"/>
      <point x="172" y="-15"/>
      <point x="293" y="-15" type="curve" smooth="yes"/>
      <point x="366" y="-15"/>
      <point x="430" y="16"/>
      <point x="469" y="63" type="curve"/>
      <point x="437" y="37"/>
      <point x="389" y="25"/>
      <point x="338" y="25" type="curve" smooth="yes"/>
      <point x="234" y="25"/>
      <point x="154" y="112"/>
      <point x="154" y="225" type="curve" smooth="yes"/>
      <point x="154" y="337"/>
      <point x="234" y="425"/>
      <point x="338" y="425" type="curve" smooth="yes"/>
      <point x="389" y="425"/>
      <point x="437" y="413"/>
      <point x="469" y="387" type="curve"/>
      <point x="430" y="434"/>
      <point x="366" y="465"/>
      <point x="293" y="465" type="curve" smooth="yes"/>
      <point x="172" y="465"/>
      <point x="75" y="365"/>
    </contour>
    <contour>
      <point x="469" y="-175" type="line"/>
      <point x="371" y="-230" type="line"/>
      <point x="593" y="-230" type="line"/>
      <point x="537" y="-175" type="line"/>
      <point x="537" y="465" type="line"/>
      <point x="469" y="386" type="line"/>
    </contour>
    <contour>
      <point x="593" y="-342" type="move" name="right"/>
    </contour>
  </outline>
</glyph>
<glyph name="r" format="1">
  <advance width="380"/>
  <unicode hex="0072"/>
  <outline>
    <contour>
      <point x="188" y="416" type="line"/>
      <point x="216" y="449" type="line"/>
      <point x="64" y="449" type="line"/>
      <point x="120" y="394" type="line"/>
      <point x="120" y="55" type="line"/>
      <point x="64" y="0" type="line"/>
      <point x="243" y="0" type="line"/>
      <point x="188" y="55" type="line"/>
    </contour>
    <contour>
      <point x="361" y="335" type="curve"/>
      <point x="361" y="449" type="line"/>
      <point x="316" y="449" type="line"/>
      <point x="342" y="432" type="line"/>
      <point x="328" y="446"/>
      <point x="313" y="455"/>
      <point x="293" y="455" type="curve" smooth="yes"/>
      <point x="257" y="455"/>
      <point x="220" y="427"/>
      <point x="199" y="369" type="curve"/>
      <point x="219" y="401"/>
      <point x="251" y="406"/>
      <point x="268" y="406" type="curve" smooth="yes"/>
      <point x="304" y="406"/>
      <point x="328" y="379"/>
    </contour>
    <contour>
      <point x="213" y="510" type="move" name="top"/>
    </contour>
    <contour>
      <point x="64" y="0" type="move" name="bottom"/>
    </contour>
  </outline>
</glyph>
<glyph name="s" format="1">
  <advance width="495"/>
  <unicode hex="0073"/>
  <outline>
    <contour>
      <point x="429" y="200"/>
      <point x="367" y="247"/>
      <point x="256" y="276" type="curve" smooth="yes"/>
      <point x="169" y="298"/>
      <point x="131" y="313"/>
      <point x="131" y="351" type="curve" smooth="yes"/>
      <point x="131" y="390"/>
      <point x="163" y="408"/>
      <point x="244" y="408" type="curve" smooth="yes"/>
      <point x="300" y="408"/>
      <point x="357" y="389"/>
      <point x="381" y="333" type="curve"/>
      <point x="392" y="447" type="line"/>
      <point x="329" y="447" type="line"/>
      <point x="359" y="423" type="line"/>
      <point x="345" y="451"/>
      <point x="296" y="465"/>
      <point x="248" y="465" type="curve" smooth="yes"/>
      <point x="173" y="465"/>
      <point x="103" y="416"/>
      <point x="103" y="339" type="curve" smooth="yes"/>
      <point x="103" y="264"/>
      <point x="157" y="227"/>
      <point x="259" y="200" type="curve" smooth="yes"/>
      <point x="338" y="180"/>
      <point x="396" y="156"/>
      <point x="396" y="110" type="curve" smooth="yes"/>
      <point x="396" y="67"/>
      <point x="363" y="45"/>
      <point x="268" y="45" type="curve" smooth="yes"/>
      <point x="168" y="45"/>
      <point x="110" y="96"/>
      <point x="91" y="162" type="curve"/>
      <point x="63" y="11" type="line"/>
      <point x="118" y="45" type="line"/>
      <point x="93" y="56" type="line"/>
      <point x="130" y="11"/>
      <point x="183" y="-15"/>
      <point x="266" y="-15" type="curve" smooth="yes"/>
      <point x="361" y="-15"/>
      <point x="429" y="36"/>
      <point x="429" y="120" type="curve" smooth="yes"/>
    </contour>
    <contour>
      <point x="246" y="510" type="move" name="top"/>
    </contour>
    <contour>
      <point x="246" y="0" type="move" name="bottom"/>
    </contour>
  </outline>
</glyph>
<glyph name="t" format="1">
  <advance width="447"/>
  <unicode hex="0074"/>
  <outline>
    <contour>
      <point x="120" y="128" type="line" smooth="yes"/>
      <point x="120" y="31"/>
      <point x="183" y="-15"/>
      <point x="259" y="-15" type="curve" smooth="yes"/>
      <point x="297" y="-15"/>
      <point x="334" y="-5"/>
      <point x="360" y="9" type="curve"/>
      <point x="397" y="9" type="line"/>
      <point x="397" y="120" type="line"/>
      <point x="368" y="76"/>
      <point x="316" y="35"/>
      <point x="259" y="35" type="curve" smooth="yes"/>
      <point x="211" y="35"/>
      <point x="188" y="61"/>
      <point x="188" y="128" type="curve" smooth="yes"/>
      <point x="188" y="573" type="line"/>
      <point x="120" y="531" type="line"/>
    </contour>
    <contour>
      <point x="358" y="406" type="line"/>
      <point x="387" y="377" type="line"/>
      <point x="387" y="479" type="line"/>
      <point x="358" y="450" type="line"/>
      <point x="75" y="450" type="line"/>
      <point x="46" y="479" type="line"/>
      <point x="46" y="377" type="line"/>
      <point x="75" y="406" type="line"/>
    </contour>
    <contour>
      <point x="397" y="573" type="move" name="right"/>
    </contour>
    <contour>
      <point x="222" y="0" type="move" name="bottom"/>
    </contour>
  </outline>
</glyph>
<glyph name="u" format="1">
  <advance width="594"/>
  <unicode hex="0075"/>
  <outline>
    <contour>
      <point x="419" y="0" type="line"/>
      <point x="533" y="0" type="line"/>
      <point x="477" y="66" type="line"/>
      <point x="477" y="460" type="line"/>
      <point x="334" y="450" type="line"/>
      <point x="409" y="385" type="line"/>
      <point x="409" y="69" type="line"/>
    </contour>
    <contour>
      <point x="179" y="151" type="curve"/>
      <point x="179" y="460" type="line"/>
      <point x="46" y="450" type="line"/>
      <point x="111" y="385" type="line"/>
      <point x="111" y="145" type="line" smooth="yes"/>
      <point x="111" y="35"/>
      <point x="158" y="-15"/>
      <point x="234" y="-15" type="curve" smooth="yes"/>
      <point x="309" y="-15"/>
      <point x="368" y="27"/>
      <point x="409" y="69" type="curve"/>
      <point x="366" y="42"/>
      <point x="329" y="27"/>
      <point x="268" y="27" type="curve" smooth="yes"/>
      <point x="212" y="27"/>
      <point x="179" y="64"/>
    </contour>
    <contour>
      <point x="290" y="510" type="move" name="top"/>
    </contour>
    <contour>
      <point x="290" y="0" type="move" name="bottom"/>
    </contour>
    <contour>
      <point x="533" y="0" type="move" name="right"/>
    </contour>
  </outline>
</glyph>
<glyph name="v" format="1">
  <advance width="516"/>
  <unicode hex="0076"/>
  <outline>
    <contour>
      <point x="345" y="450" type="line"/>
      <point x="383" y="410" type="line"/>
      <point x="291" y="190" type="line"/>
      <point x="251" y="70" type="line"/>
      <point x="265" y="70" type="line"/>
      <point x="226" y="190" type="line"/>
      <point x="133" y="410" type="line"/>
      <point x="172" y="450" type="line"/>
      <point x="-7" y="450" type="line"/>
      <point x="87" y="356" type="line"/>
      <point x="258" y="-14" type="line"/>
      <point x="429" y="356" type="line"/>
      <point x="523" y="450" type="line"/>
    </contour>
  </outline>
</glyph>
<glyph name="w" format="1">
  <advance width="714"/>
  <unicode hex="0077"/>
  <outline>
    <contour>
      <point x="357" y="465" type="line"/>
      <point x="268" y="190" type="line"/>
      <point x="231" y="70" type="line"/>
      <point x="245" y="70" type="line"/>
      <point x="209" y="190" type="line"/>
      <point x="136" y="410" type="line"/>
      <point x="175" y="450" type="line"/>
      <point x="-7" y="450" type="line"/>
      <point x="87" y="356" type="line"/>
      <point x="238" y="-14" type="line"/>
      <point x="389" y="356" type="line"/>
    </contour>
    <contour>
      <point x="357" y="465" type="line"/>
      <point x="325" y="356" type="line"/>
      <point x="476" y="-14" type="line"/>
      <point x="627" y="356" type="line"/>
      <point x="721" y="450" type="line"/>
      <point x="539" y="450" type="line"/>
      <point x="578" y="410" type="line"/>
      <point x="505" y="190" type="line"/>
      <point x="469" y="70" type="line"/>
      <point x="483" y="70" type="line"/>
      <point x="446" y="190" type="line"/>
    </contour>
  </outline>
</glyph>
<glyph name="x" format="1">
  <advance width="476"/>
  <unicode hex="0078"/>
  <outline>
    <contour>
      <point x="130" y="45" type="line"/>
      <point x="239" y="224" type="line"/>
      <point x="343" y="45" type="line"/>
      <point x="306" y="0" type="line"/>
      <point x="461" y="0" type="line"/>
      <point x="383" y="94" type="line"/>
      <point x="274" y="246" type="line"/>
      <point x="353" y="356" type="line"/>
      <point x="431" y="450" type="line"/>
      <point x="276" y="450" type="line"/>
      <point x="317" y="405" type="line"/>
      <point x="239" y="267" type="line"/>
      <point x="162" y="405" type="line"/>
      <point x="201" y="450" type="line"/>
      <point x="45" y="450" type="line"/>
      <point x="124" y="356" type="line"/>
      <point x="203" y="246" type="line"/>
      <point x="94" y="94" type="line"/>
      <point x="15" y="0" type="line"/>
      <point x="171" y="0" type="line"/>
    </contour>
  </outline>
</glyph>
<glyph name="y" format="1">
  <advance width="516"/>
  <unicode hex="0079"/>
  <outline>
    <contour>
      <point x="340" y="450" type="line"/>
      <point x="378" y="410" type="line"/>
      <point x="291" y="160" type="line"/>
      <point x="251" y="40" type="line"/>
      <point x="265" y="40" type="line"/>
      <point x="226" y="160" type="line"/>
      <point x="138" y="410" type="line"/>
      <point x="177" y="450" type="line"/>
      <point x="-7" y="450" type="line"/>
      <point x="87" y="356" type="line"/>
      <point x="258" y="-54" type="line"/>
      <point x="429" y="356" type="line"/>
      <point x="523" y="450" type="line"/>
    </contour>
    <contour>
      <point x="292" y="45" type="line"/>
      <point x="224" y="42" type="line"/>
      <point x="224" y="-175" type="line"/>
      <point x="169" y="-230" type="line"/>
      <point x="347" y="-230" type="line"/>
      <point x="292" y="-175" type="line"/>
    </contour>
  </outline>
</glyph>
<glyph name="z" format="1">
  <advance width="438"/>
  <unicode hex="007A"/>
  <outline>
    <contour>
      <point x="51" y="450" type="line"/>
      <point x="45" y="338" type="line"/>
      <point x="111" y="404" type="line"/>
      <point x="329" y="404" type="line"/>
      <point x="315" y="434" type="line"/>
      <point x="45" y="0" type="line"/>
      <point x="358" y="0" type="line"/>
      <point x="365" y="115" type="line"/>
      <point x="296" y="47" type="line"/>
      <point x="109" y="47" type="line"/>
      <point x="123" y="17" type="line"/>
      <point x="393" y="450" type="line"/>
    </contour>
    <contour>
      <point x="305" y="742" type="move" name="top"/>
    </contour>
  </outline>
</glyph>
<glyph name="dieresis" format="1">
  <advance width="361"/>
  <unicode hex="00A8"/>
  <outline>
    <contour>
      <point x="332" y="821" type="line"/>
      <point x="271" y="882" type="line"/>
      <point x="210" y="821" type="line"/>
      <point x="271" y="760" type="line"/>
    </contour>
    <contour>
      <point x="152" y="821" type="line"/>
      <point x="91" y="882" type="line"/>
      <point x="30" y="821" type="line"/>
      <point x="91" y="760" type="line"/>
    </contour>
    <contour>
      <point x="181.0" y="760.0" type="move" name="_top"/>
    </contour>
  </outline>
</glyph>
<glyph name="acute" format="1">
  <advance width="250"/>
  <unicode hex="00B4"/>
  <outline>
    <contour>
      <point x="73" y="866" type="curve"/>
      <point x="221" y="866" type="line"/>
      <point x="177" y="771"/>
      <point x="43" y="732"/>
      <point x="43" y="732" type="curve"/>
      <point x="43" y="732"/>
      <point x="97" y="768"/>
      <point x="97" y="803" type="curve" smooth="yes"/>
      <point x="97" y="838"/>
      <point x="73" y="866"/>
    </contour>
    <contour>
      <point x="147" y="732" type="move" name="_top"/>
    </contour>
  </outline>
</glyph>
<glyph name="cedilla" format="1">
  <advance width="416"/>
  <unicode hex="00B8"/>
  <outline>
    <contour>
      <point x="229" y="12" type="line"/>
      <point x="39" y="-196" type="line"/>
      <point x="76" y="-196"/>
      <point x="131" y="-165"/>
      <point x="189" y="-123" type="curve" smooth="yes"/>
      <point x="377" y="12" type="line"/>
    </contour>
    <contour>
      <point x="229.0" y="0.0" type="move" name="_bottom"/>
    </contour>
  </outline>
</glyph>
<glyph name="guillemotright" format="1">
  <advance width="478"/>
  <unicode hex="00BB"/>
  <outline>
    <contour>
      <point x="188" y="576" type="line"/>
      <point x="272" y="576" type="line"/>
      <point x="464" y="369" type="line"/>
      <point x="252" y="162" type="line"/>
      <point x="159" y="162" type="line"/>
      <point x="393" y="369" type="line"/>
    </contour>
    <contour>
      <point x="28" y="576" type="line"/>
      <point x="112" y="576" type="line"/>
      <point x="304" y="369" type="line"/>
      <point x="92" y="162" type="line"/>
      <point x="-1" y="162" type="line"/>
      <point x="233" y="369" type="line"/>
    </contour>
  </outline>
</glyph>
<glyph name="dotlessi" format="1">
  <advance width="259"/>
  <unicode hex="0131"/>
  <outline>
    <contour>
      <point x="164" y="460" type="line"/>
      <point x="31" y="450" type="line"/>
      <point x="96" y="385" type="line"/>
      <point x="96" y="55" type="line"/>
      <point x="40" y="0" type="line"/>
      <point x="219" y="0" type="line"/>
      <point x="164" y="55" type="line"/>
    </contour>
    <contour>
      <point x="219.0" y="0.0" type="move" name="right"/>
    </contour>
    <contour>
      <point x="125.0" y="510.0" type="move" name="top"/>
    </contour>
    <contour>
      <point x="125.0" y="0.0" type="move" name="bottom"/>
    </contour>
  </outline>
</glyph>
<glyph name="circumflex" format="1">
  <advance width="250"/>
  <unicode hex="02C6"/>
  <outline>
    <contour>
      <point x="125" y="899" type="line"/>
      <point x="-30" y="744" type="line"/>
      <point x="43" y="744" type="line"/>
      <point x="125" y="844" type="line"/>
      <point x="208" y="744" type="line"/>
      <point x="280" y="744" type="line"/>
    </contour>
    <contour>
      <point x="128" y="732" type="move" name="_top"/>
    </contour>
  </outline>
</glyph>
<glyph name="emdash" format="1">
  <advance width="575"/>
  <unicode hex="2014"/>
  <outline>
    <contour>
      <point x="502" y="356" type="line"/>
      <point x="71" y="356" type="line"/>
      <point x="71" y="400" type="line"/>
      <point x="502" y="400" type="line"/>
    </contour>
  </outline>
</glyph>
<glyph name="guilsinglright" format="1">
  <advance width="335"/>
  <unicode hex="203A"/>
  <outline>
    <contour>
      <point x="28" y="576" type="line"/>
      <point x="112" y="576" type="line"/>
      <point x="304" y="369" type="line"/>
      <point x="92" y="162" type="line"/>
      <point x="-1" y="162" type="line"/>
      <point x="233" y="369" type="line"/>
    </contour>
  </outline>
</glyph>
<glyph name="OE" format="1">
  <advance width="897"/>
  <outline>
    <contour>
      <point x="449.97" y="899" type="line"/>
      <point x="294.97" y="744" type="line"/>
      <point x="367.97" y="744" type="line"/>
      <point x="449.97" y="844" type="line"/>
      <point x="532.97" y="744" type="line"/>
      <point x="604.97" y="744" type="line"/>
    </contour>
    <component base="O" xOffset="20" yOffset="-1"/>
  </outline>
</glyph>
<glyph name="S.2" format="1">
  <advance width="582"/>
  <outline>
    <contour>
      <point x="16" y="366"/>
      <point x="105" y="322"/>
      <point x="246" y="282" type="curve" smooth="yes"/>
      <point x="347" y="254"/>
      <point x="404" y="209"/>
      <point x="404" y="141" type="curve" smooth="yes"/>
      <point x="404" y="80"/>
      <point x="355" y="46"/>
      <point x="270" y="46" type="curve" smooth="yes"/>
      <point x="201" y="46"/>
      <point x="137" y="75"/>
      <point x="113" y="128" type="curve"/>
      <point x="113" y="5" type="line"/>
      <point x="184" y="5" type="line"/>
      <point x="135" y="18" type="line"/>
      <point x="168" y="-3"/>
      <point x="208" y="-15"/>
      <point x="264" y="-15" type="curve" smooth="yes"/>
      <point x="363" y="-15"/>
      <point x="454" y="47"/>
      <point x="454" y="155" type="curve" smooth="yes"/>
      <point x="454" y="265"/>
      <point x="391" y="315"/>
      <point x="247" y="357" type="curve" smooth="yes"/>
      <point x="154" y="384"/>
      <point x="72" y="428"/>
      <point x="72" y="520" type="curve" smooth="yes"/>
      <point x="72" y="605"/>
      <point x="154" y="662"/>
      <point x="256" y="662" type="curve" smooth="yes"/>
      <point x="376" y="662"/>
      <point x="440" y="590"/>
      <point x="456" y="500" type="curve"/>
      <point x="544" y="694" type="line"/>
      <point x="446" y="627" type="line"/>
      <point x="472" y="638" type="line"/>
      <point x="425" y="690"/>
      <point x="348" y="727"/>
      <point x="253" y="727" type="curve" smooth="yes"/>
      <point x="125" y="727"/>
      <point x="16" y="637"/>
      <point x="16" y="503" type="curve" smooth="yes"/>
    </contour>
    <contour>
      <point x="280.0" y="742.0" type="move" name="top"/>
    </contour>
    <contour>
      <point x="280.0" y="0.0" type="move" name="bottom"/>
    </contour>
  </outline>
</glyph>
<glyph name=".notdef" format="1">
  <advance width="500"/>
  <outline>
    <contour>
      <point x="423" y="38" type="line"/>
      <point x="435" y="50" type="line"/>
      <point x="87" y="399" type="line"/>
      <point x="75" y="387" type="line"/>
    </contour>
    <contour>
      <point x="436" y="387" type="line"/>
      <point x="424" y="399" type="line"/>
      <point x="76" y="50" type="line"/>
      <point x="87" y="39" type="line"/>
    </contour>
  </outline>
</glyph>
<glyph name="i.alt" format="1">
  <advance width="259"/>
  <outline>
    <contour>
      <point x="197" y="627" type="line"/>
      <point x="129" y="696" type="line"/>
      <point x="60" y="627" type="line"/>
      <point x="129" y="559" type="line"/>
    </contour>
    <contour>
      <point x="164" y="395" type="line"/>
      <point x="219" y="450" type="line"/>
      <point x="40" y="450" type="line"/>
      <point x="95" y="395" type="line"/>
      <point x="95" y="55" type="line"/>
      <point x="40" y="0" type="line"/>
      <point x="219" y="0" type="line"/>
      <point x="164" y="55" type="line"/>
    </contour>
  </outline>
</glyph>
<glyph name="moon" format="1">
  <advance width="710"/>
  <outline>
    <contour>
      <point x="131" y="356" type="curve" smooth="yes"/>
      <point x="131" y="543"/>
      <point x="276" y="681"/>
      <point x="452" y="681" type="curve" smooth="yes"/>
      <point x="534" y="681"/>
      <point x="619" y="653"/>
      <point x="664" y="618" type="curve"/>
      <point x="610" y="678"/>
      <point x="515" y="727"/>
      <point x="406" y="727" type="curve" smooth="yes"/>
      <point x="212" y="727"/>
      <point x="49" y="570"/>
      <point x="49" y="356" type="curve" smooth="yes"/>
      <point x="49" y="142"/>
      <point x="212" y="-15"/>
      <point x="406" y="-15" type="curve" smooth="yes"/>
      <point x="515" y="-15"/>
      <point x="609" y="34"/>
      <point x="664" y="94" type="curve"/>
      <point x="622" y="61"/>
      <point x="534" y="41"/>
      <point x="452" y="41" type="curve" smooth="yes"/>
      <point x="276" y="41"/>
      <point x="131" y="175"/>
    </contour>
  </outline>
</glyph>
<glyph name="x.2" format="1">
  <advance width="463"/>
  <outline>
    <contour>
      <point x="340" y="45" type="line"/>
      <point x="295" y="0" type="line"/>
      <point x="474" y="0" type="line"/>
      <point x="380" y="94" type="line"/>
      <point x="153" y="405" type="line"/>
      <point x="198" y="450" type="line"/>
      <point x="19" y="450" type="line"/>
      <point x="113" y="356" type="line"/>
    </contour>
    <contour>
      <point x="444" y="450" type="line"/>
      <point x="265" y="450" type="line"/>
      <point x="310" y="405" type="line"/>
      <point x="252" y="274" type="line"/>
    </contour>
    <contour>
      <point x="123" y="45" type="line"/>
      <point x="209" y="222" type="line"/>
      <point x="-11" y="0" type="line"/>
      <point x="168" y="0" type="line"/>
    </contour>
  </outline>
</glyph>
